<?xml version="1.0" encoding="utf-8"?>
<!-- Generator: Adobe Illustrator 13.0.1, SVG Export Plug-In  -->
<!DOCTYPE svg PUBLIC "-//W3C//DTD SVG 1.1//EN" "http://www.w3.org/Graphics/SVG/1.1/DTD/svg11.dtd" [
	<!ENTITY ns_flows "http://ns.adobe.com/Flows/1.0/">
]>
<svg version="1.1"
	 xmlns="http://www.w3.org/2000/svg" xmlns:xlink="http://www.w3.org/1999/xlink" xmlns:a="http://ns.adobe.com/AdobeSVGViewerExtensions/3.0/"
	 x="0px" y="0px" width="300px" height="635px" viewBox="-5.846 -4.865 300 635" enable-background="new -5.846 -4.865 300 635"
	 xml:space="preserve">
<defs>
	<symbol  id="Arrow_25" viewBox="-22.851 -13.154 45.703 26.309">
		<polygon fill="none" points="-22.851,-13.154 22.852,-13.154 22.852,13.154 -22.851,13.154 		"/>
		<g>
			<polygon fill="#231F20" points="-22.851,-3.172 0.066,-3.172 0.066,-13.154 22.852,0.001 0.066,13.154 0.066,3.174 
				-22.851,3.174 			"/>
		</g>
	</symbol>
</defs>
<rect x="0.139" y="0.135" fill="#FAFCDB" stroke="#B3B3B3" stroke-width="0.27" width="289" height="302"/>
<rect x="0.139" y="306.135" fill="#DCF8F9" stroke="#B3B3B3" stroke-width="0.277" width="289" height="318"/>
<use xlink:href="#Arrow_25"  width="45.703" height="26.309" x="-22.851" y="-13.154" transform="matrix(-1.712758e-08 0.3918 0.3918 1.712758e-08 145.3198 104.0308)" overflow="visible"/>
<use xlink:href="#Arrow_25"  width="45.703" height="26.309" x="-22.851" y="-13.154" transform="matrix(-1.712758e-08 0.3918 0.3918 1.712758e-08 145.3198 149.0308)" overflow="visible"/>
<use xlink:href="#Arrow_25"  width="45.703" height="26.309" x="-22.851" y="-13.154" transform="matrix(-1.712758e-08 0.3918 0.3918 1.712758e-08 145.3198 194.0317)" overflow="visible"/>
<use xlink:href="#Arrow_25"  width="45.703" height="26.309" x="-22.851" y="-13.154" transform="matrix(-1.712758e-08 0.3918 0.3918 1.712758e-08 145.3198 310.0391)" overflow="visible"/>
<use xlink:href="#Arrow_25"  width="45.703" height="26.309" x="-22.851" y="-13.154" transform="matrix(-1.712758e-08 0.3918 0.3918 1.712758e-08 145.3198 414.0312)" overflow="visible"/>
<use xlink:href="#Arrow_25"  width="45.703" height="26.309" x="-22.851" y="-13.154" transform="matrix(-1.712758e-08 0.3918 0.3918 1.712758e-08 145.3198 485.0273)" overflow="visible"/>
<linearGradient id="SVGID_1_" gradientUnits="userSpaceOnUse" x1="57.8213" y1="251.6396" x2="235.8213" y2="251.6396">
	<stop  offset="0.1319" style="stop-color:#FFFFFF"/>
	<stop  offset="0.3856" style="stop-color:#F4F4F4"/>
	<stop  offset="0.8296" style="stop-color:#D7D7D7"/>
	<stop  offset="0.9615" style="stop-color:#CDCDCD"/>
</linearGradient>
<path fill="url(#SVGID_1_)" stroke="#000000" stroke-width="0.25" d="M235.821,296.14c0,1.657-1.343,3-3,3h-172
	c-1.657,0-3-1.343-3-3v-89c0-1.657,1.343-3,3-3h172c1.657,0,3,1.343,3,3V296.14z"/>
<linearGradient id="SVGID_2_" gradientUnits="userSpaceOnUse" x1="18.8218" y1="542.1924" x2="274.8213" y2="542.1924">
	<stop  offset="0.1319" style="stop-color:#FFFFFF"/>
	<stop  offset="0.3856" style="stop-color:#F4F4F4"/>
	<stop  offset="0.8296" style="stop-color:#D7D7D7"/>
	<stop  offset="0.9615" style="stop-color:#CDCDCD"/>
</linearGradient>
<path fill="url(#SVGID_2_)" stroke="#000000" stroke-width="0.25" d="M274.821,588.192c0,1.657-1.343,3-3,3h-250
	c-1.657,0-3-1.343-3-3v-92c0-1.657,1.343-3,3-3h250c1.657,0,3,1.343,3,3V588.192z"/>
<linearGradient id="SVGID_3_" gradientUnits="userSpaceOnUse" x1="80.9272" y1="64.6602" x2="215.2813" y2="64.6602">
	<stop  offset="0.1319" style="stop-color:#FFFFFF"/>
	<stop  offset="0.3856" style="stop-color:#F4F4F4"/>
	<stop  offset="0.8296" style="stop-color:#D7D7D7"/>
	<stop  offset="0.9615" style="stop-color:#CDCDCD"/>
</linearGradient>
<path fill="url(#SVGID_3_)" stroke="#000000" stroke-width="0.25" d="M235.821,95.9c0,2.353-1.343,4.26-3,4.26h-172
	c-1.657,0-3-1.907-3-4.26V33.42c0-2.353,1.343-4.26,3-4.26h172c1.657,0,3,1.907,3,4.26V95.9z"/>
<linearGradient id="SVGID_4_" gradientUnits="userSpaceOnUse" x1="57.8218" y1="129.2251" x2="235.8213" y2="129.2251">
	<stop  offset="0.1319" style="stop-color:#FFFFFF"/>
	<stop  offset="0.3856" style="stop-color:#F4F4F4"/>
	<stop  offset="0.8296" style="stop-color:#D7D7D7"/>
	<stop  offset="0.9615" style="stop-color:#CDCDCD"/>
</linearGradient>
<path fill="url(#SVGID_4_)" stroke="#000000" stroke-width="0.25" d="M235.821,141.225c0,1.657-1.343,3-3,3h-172
	c-1.657,0-3-1.343-3-3v-24c0-1.657,1.343-3,3-3h172c1.657,0,3,1.343,3,3V141.225z"/>
<linearGradient id="SVGID_5_" gradientUnits="userSpaceOnUse" x1="57.8218" y1="361.6865" x2="235.8213" y2="361.6865">
	<stop  offset="0.1319" style="stop-color:#FFFFFF"/>
	<stop  offset="0.3856" style="stop-color:#F4F4F4"/>
	<stop  offset="0.8296" style="stop-color:#D7D7D7"/>
	<stop  offset="0.9615" style="stop-color:#CDCDCD"/>
</linearGradient>
<path fill="url(#SVGID_5_)" stroke="#000000" stroke-width="0.25" d="M235.821,396.487c0,4.802-1.343,8.699-3,8.699h-172
	c-1.657,0-3-3.897-3-8.699v-69.601c0-4.805,1.343-8.7,3-8.7h172c1.657,0,3,3.896,3,8.7V396.487z"/>
<linearGradient id="SVGID_6_" gradientUnits="userSpaceOnUse" x1="57.8218" y1="451.1953" x2="235.8213" y2="451.1953">
	<stop  offset="0.1319" style="stop-color:#FFFFFF"/>
	<stop  offset="0.3856" style="stop-color:#F4F4F4"/>
	<stop  offset="0.8296" style="stop-color:#D7D7D7"/>
	<stop  offset="0.9615" style="stop-color:#CDCDCD"/>
</linearGradient>
<path fill="url(#SVGID_6_)" stroke="#000000" stroke-width="0.25" d="M235.821,472.795c0,2.981-1.343,5.4-3,5.4h-172
	c-1.657,0-3-2.419-3-5.4v-43.199c0-2.981,1.343-5.4,3-5.4h172c1.657,0,3,2.419,3,5.4V472.795z"/>
<linearGradient id="SVGID_7_" gradientUnits="userSpaceOnUse" x1="57.8218" y1="172.7192" x2="235.8213" y2="172.7192">
	<stop  offset="0.1319" style="stop-color:#FFFFFF"/>
	<stop  offset="0.3856" style="stop-color:#F4F4F4"/>
	<stop  offset="0.8296" style="stop-color:#D7D7D7"/>
	<stop  offset="0.9615" style="stop-color:#CDCDCD"/>
</linearGradient>
<path fill="url(#SVGID_7_)" stroke="#000000" stroke-width="0.25" d="M235.821,184.719c0,1.657-1.343,3-3,3h-172
	c-1.657,0-3-1.343-3-3v-24c0-1.657,1.343-3,3-3h172c1.657,0,3,1.343,3,3V184.719z"/>
<text transform="matrix(1 0 0 1 105.062 49.1641)"><tspan x="0" y="0" font-family="'MyriadPro-Semibold'" font-size="20">Pre-alpha</tspan><tspan x="33.161" y="14.4" font-family="'MyriadPro-Regular'" font-size="12">aka</tspan><tspan x="-13.284" y="28.8" font-family="'MyriadPro-Regular'" font-size="12">development releases</tspan><tspan x="7.541" y="43.2" font-family="'MyriadPro-Regular'" font-size="12">nightly builds</tspan></text>
<text transform="matrix(1 0 0 1 36.9727 535.1953)"><tspan x="0" y="0" font-family="'MyriadPro-Semibold'" font-size="20">Production or live release</tspan><tspan x="101.25" y="14.4" font-family="'MyriadPro-Regular'" font-size="12">aka</tspan><tspan x="89.168" y="38.4" font-family="'MyriadPro-Semibold'" font-size="20">Gold</tspan></text>
<text transform="matrix(1 0 0 1 121.2412 135.0977)" font-family="'MyriadPro-Semibold'" font-size="20">Alpha</text>
<text transform="matrix(1 0 0 1 127.3105 178.5928)" font-family="'MyriadPro-Semibold'" font-size="20">Beta</text>
<text transform="matrix(1 0 0 1 125.542 346.1865)"><tspan x="0" y="0" font-family="'MyriadPro-Semibold'" font-size="20">RTM </tspan><tspan x="-42.5" y="14.4" font-family="'MyriadPro-Regular'" font-size="12">Release to Manufacturing</tspan><tspan x="12.682" y="28.8" font-family="'MyriadPro-Regular'" font-size="12">aka</tspan><tspan x="-31.046" y="43.2" font-family="'MyriadPro-Regular'" font-size="12">Release to Marketing</tspan></text>
<text transform="matrix(1 0 0 1 67.1523 237.1685)"><tspan x="0" y="0" font-family="'MyriadPro-Semibold'" font-size="20">Release Candidate</tspan><tspan x="71.071" y="14.4" font-family="'MyriadPro-Regular'" font-size="12">aka</tspan><tspan x="60.523" y="28.8" font-family="'MyriadPro-Regular'" font-size="12">gamma</tspan><tspan x="66.985" y="43.2" font-family="'MyriadPro-Regular'" font-size="12">delta</tspan></text>
<text transform="matrix(1 0 0 1 131.7314 449.1953)"><tspan x="0" y="0" font-family="'MyriadPro-Semibold'" font-size="20">GA </tspan><tspan x="-33.281" y="14.4" font-family="'MyriadPro-Regular'" font-size="12">General Availability</tspan></text>
<text transform="matrix(1 0 0 1 63.0977 18.1348)" fill="#808080" font-family="'MyriadPro-Regular'" font-size="12">Testing and development period</text>
<text transform="matrix(1 0 0 1 108.481 612.1348)" fill="#808080" font-family="'MyriadPro-Regular'" font-size="12">Release period</text>
</svg>
